<svg width="21" height="21" viewBox="0 0 21 21" fill="none" xmlns="http://www.w3.org/2000/svg">
<path d="M19.775 21C17.3444 21 14.9431 20.4703 12.5708 19.411C10.1986 18.3517 8.04028 16.8494 6.09583 14.9042C4.15139 12.9597 2.6495 10.8014 1.59017 8.42917C0.530833 6.05694 0.000777778 3.65556 0 1.225C0 0.875 0.116667 0.583333 0.35 0.35C0.583333 0.116667 0.875 0 1.225 0H5.95C6.22222 0 6.46528 0.0925554 6.67917 0.277667C6.89306 0.462778 7.01944 0.681333 7.05833 0.933333L7.81667 5.01667C7.85556 5.32778 7.84583 5.59028 7.7875 5.80417C7.72917 6.01806 7.62222 6.20278 7.46667 6.35833L4.6375 9.21667C5.02639 9.93611 5.488 10.6311 6.02233 11.3015C6.55667 11.9719 7.14506 12.6187 7.7875 13.2417C8.39028 13.8444 9.02222 14.4037 9.68333 14.9193C10.3444 15.435 11.0444 15.9063 11.7833 16.3333L14.525 13.5917C14.7 13.4167 14.9287 13.2856 15.211 13.1985C15.4933 13.1114 15.7702 13.0869 16.0417 13.125L20.0667 13.9417C20.3389 14.0194 20.5625 14.1606 20.7375 14.3652C20.9125 14.5697 21 14.798 21 15.05V19.775C21 20.125 20.8833 20.4167 20.65 20.65C20.4167 20.8833 20.125 21 19.775 21Z" fill="#F1AE60"/>
</svg>
